<?xml version="1.0" encoding="UTF-8"?>
<svg id="_Слой_2" xmlns="http://www.w3.org/2000/svg" version="1.1" viewBox="0 0 445.5 67">
  <!-- Generator: Adobe Illustrator 29.0.0, SVG Export Plug-In . SVG Version: 2.1.0 Build 186)  -->
  <defs>
    <style>
      .st0 {
        fill: #0191e2;
      }

      .st1 {
        fill: #c82e3e;
      }

      .st2 {
        fill: #ff0065;
      }

      .st3 {
        isolation: isolate;
      }

      .st4 {
        fill: #405579;
      }
    </style>
  </defs>
  <g id="svg7">
    <path id="path1" class="st0" d="M32.9,67c-1.9,0-3.7-.4-5.4-1.1-1.7-.7-3.3-1.8-4.6-3.1-1.3-1.3-2.4-2.9-3.1-4.7-.7-1.8-1.1-3.6-1.1-5.5V14.4c0-3.8,1.6-7.3,4.3-10C25.6,1.8,29.2.3,32.9.3s7.3,1.5,9.9,4.1c2.7,2.6,4.2,6.2,4.3,10v38.1c0,1.9-.4,3.8-1.1,5.5-.7,1.8-1.8,3.3-3.1,4.7-1.3,1.3-2.9,2.4-4.6,3.1-1.7.7-3.6,1.1-5.4,1.1h0Z"/>
    <path id="path2" class="st0" d="M0,33.5c0-1.9.4-3.8,1.1-5.5.7-1.8,1.8-3.4,3.1-4.7,1.3-1.3,2.9-2.4,4.6-3.1,1.7-.7,3.6-1.1,5.4-1.1h37.4c3.7,0,7.2,1.7,9.8,4.4s4,6.3,4,10.1-1.5,7.4-4,10.1c-2.6,2.7-6.1,4.3-9.8,4.4H14.2c-3.8,0-7.4-1.5-10-4.2-2.7-2.7-4.2-6.4-4.2-10.2Z"/>
    <path id="path3" class="st4" d="M47.1,19h-28.4v28.9h28.4v-28.9Z"/>
    <path id="path4" class="st2" d="M73,33.5l8.6-8.8c1.3-1.3,2.4-2.9,3.1-4.7.7-1.8,1.1-3.6,1.1-5.5s-.4-3.8-1.1-5.5c-.7-1.8-1.8-3.3-3.1-4.7s-2.9-2.4-4.6-3.1c-1.7-.7-3.6-1.1-5.4-1.1s-3.7.4-5.4,1.1-3.3,1.8-4.6,3.1l-28.7,29.2,28.7,29.2c2.7,2.6,6.3,4.1,10,4,3.7,0,7.3-1.6,9.9-4.2,2.6-2.7,4.1-6.3,4.2-10.1s-1.4-7.4-4-10.2l-8.6-8.8h0Z"/>
    <path id="path5" class="st1" d="M51.6,19h-4.5l-14.2,14.5,14.2,14.5h4.5c3.7,0,7.2-1.7,9.8-4.4,2.6-2.7,4-6.3,4-10.1s-1.4-7.4-4-10.1-6.1-4.3-9.8-4.4h0Z"/>
    <g class="st3">
      <g class="st3">
        <path class="st4" d="M112.5,53.7c1.2-1.4,2.4-2.5,4.3-2.7v10h-1.9v-7.1l-2.3,2.4h-.1l-2.3-2.4v7.1h-1.9v-10c1.9.2,3.1,1.3,4.3,2.7Z"/>
        <path class="st4" d="M118.2,55.9c0-3.1,2.1-5.1,5-5.1s5.1,2.1,5.1,5.1-2.1,5.1-5.1,5.1-5-2.2-5-5.1ZM126.2,55.9c0-1.8-1.2-3.1-3-3.1s-3,1.3-3,3.1,1.2,3.1,3,3.1,3-1.3,3-3.1Z"/>
        <path class="st4" d="M129.4,55.9c0-3.1,2.2-5.1,5.2-5.1s.7,0,1.1.1v2c-.3,0-.6-.1-1-.1-1.9,0-3.1,1.2-3.1,3.1s1.3,3.1,3.1,3.1.7,0,1-.1v2c-.3.1-.7.2-1.1.2-3,0-5.2-2.1-5.2-5.1Z"/>
      </g>
      <g class="st3">
        <path class="st4" d="M139.7,56.6h-.6v4.3h-1.9v-10h1.9v3.8h.7l1.2-3.8h2l-1.6,4.8,1.9,5.2h-2.1l-1.4-4.3Z"/>
      </g>
      <g class="st3">
        <path class="st4" d="M143.6,55.9c0-3.1,2.1-5.1,5-5.1s5.1,2.1,5.1,5.1-2.1,5.1-5.1,5.1-5-2.2-5-5.1ZM151.6,55.9c0-1.8-1.2-3.1-3-3.1s-3,1.3-3,3.1,1.2,3.1,3,3.1,3-1.3,3-3.1Z"/>
        <path class="st4" d="M155.1,50.9h1.6c2.4,0,3.7,1,3.7,2.7s-.4,1.6-1.1,2c1.1.4,1.5,1.3,1.5,2.4,0,1.9-1.3,2.9-3.8,2.9h-1.9v-10ZM158.4,53.8c0-.8-.5-1.1-1.5-1.1v2.2c1,0,1.5-.4,1.5-1.1ZM158.9,57.9c0-.9-.6-1.3-1.9-1.3v2.6c1.3,0,1.9-.4,1.9-1.3Z"/>
        <path class="st4" d="M161.7,55.9c0-3.1,2.2-5.1,5.2-5.1s.7,0,1.1.1v2c-.3,0-.6-.1-1-.1-1.9,0-3.1,1.2-3.1,3.1s1.3,3.1,3.1,3.1.7,0,1-.1v2c-.3.1-.7.2-1.1.2-3,0-5.2-2.1-5.2-5.1Z"/>
        <path class="st4" d="M172,56.6h-.6v4.3h-1.9v-10h1.9v3.8h.7l1.2-3.8h2l-1.6,4.8,1.9,5.2h-2.1l-1.4-4.3Z"/>
        <path class="st4" d="M176.5,50.9h1.9v4.9l3.7-5.1h.3v10.1h-1.9v-4.9l-3.7,5.1h-.3v-10.1Z"/>
        <path class="st4" d="M184.1,50.9h1.9v4.9l3.7-5.1h.3v10.1h-1.9v-4.9l-3.7,5.1h-.3v-10.1ZM185.2,48.8h1.5c0,.3.3.5.6.5s.6-.2.6-.5h1.5c0,1.3-1,1.8-2.1,1.8s-2.1-.6-2.1-1.8Z"/>
        <path class="st4" d="M198.8,53.7c1.2-1.4,2.4-2.5,4.3-2.7v10h-1.9v-7.1l-2.3,2.4h-.1l-2.3-2.4v7.1h-1.9v-10c1.9.2,3.1,1.3,4.3,2.7Z"/>
        <path class="st4" d="M208.8,56.6h-2v4.3h-2v-10h2v3.8h2v-3.8h2v10h-2v-4.3Z"/>
        <path class="st4" d="M212.2,55.9c0-3.1,2.1-5.1,5-5.1s5.1,2.1,5.1,5.1-2.1,5.1-5.1,5.1-5-2.2-5-5.1ZM220.3,55.9c0-1.8-1.2-3.1-3-3.1s-3,1.3-3,3.1,1.2,3.1,3,3.1,3-1.3,3-3.1Z"/>
      </g>
      <g class="st3">
        <path class="st4" d="M223.7,50.9h4.2v1.9h-2.2v8.1h-2v-10Z"/>
      </g>
      <g class="st3">
        <path class="st4" d="M228.4,55.9c0-3.1,2.1-5.1,5-5.1s5.1,2.1,5.1,5.1-2.1,5.1-5.1,5.1-5-2.2-5-5.1ZM236.4,55.9c0-1.8-1.2-3.1-3-3.1s-3,1.3-3,3.1,1.2,3.1,3,3.1,3-1.3,3-3.1Z"/>
        <path class="st4" d="M243.9,52.8h-2v8.1h-2v-10h6v10h-2v-8.1Z"/>
      </g>
      <g class="st3">
        <path class="st4" d="M247.6,50.9h1.6c2.7,0,4.2,1.1,4.2,3.3s-1,3.3-3.8,3.3v3.4h-2v-10ZM251.3,54.2c0-.9-.6-1.4-1.7-1.4v2.8c1.1,0,1.7-.5,1.7-1.4Z"/>
      </g>
      <g class="st3">
        <path class="st4" d="M254.1,55.9c0-3.1,2.1-5.1,5-5.1s5.1,2.1,5.1,5.1-2.1,5.1-5.1,5.1-5-2.2-5-5.1ZM262.2,55.9c0-1.8-1.2-3.1-3-3.1s-3,1.3-3,3.1,1.2,3.1,3,3.1,3-1.3,3-3.1Z"/>
        <path class="st4" d="M270,59.8c-2.6,0-4.8-1.4-4.8-4.1s2.2-4.1,4.8-4.1v-1.3h2v1.3c2.6,0,4.8,1.4,4.8,4.1s-2.2,4.1-4.8,4.1v1.1h-2v-1.1ZM270,57.8v-4.4c-1.7,0-2.8.6-2.8,2.2s1.1,2.2,2.8,2.2ZM274.8,55.6c0-1.6-1.1-2.2-2.8-2.2v4.4c1.7,0,2.8-.6,2.8-2.2Z"/>
        <path class="st4" d="M278,50.9h1.9v4.9l3.7-5.1h.3v10.1h-1.9v-4.9l-3.7,5.1h-.3v-10.1Z"/>
        <path class="st4" d="M286,58.1l.2-7.2h5.1v10h-1.9v-8.1h-1.4l-.2,5.4c0,2.4-1.2,2.9-2.9,2.9v-1.9c.6,0,1-.3,1-1Z"/>
        <path class="st4" d="M293.1,50.9h2v3.4c2.8,0,3.8,1.6,3.8,3.3s-1.4,3.3-3.8,3.3h-2v-10ZM296.8,57.6c0-.9-.6-1.4-1.7-1.4v2.8c1.1,0,1.7-.5,1.7-1.4Z"/>
        <path class="st4" d="M304.1,56.6h-2v4.3h-2v-10h2v3.8h2v-3.8h2v10h-2v-4.3Z"/>
        <path class="st4" d="M307.8,50.9h2v3.4c2.7,0,3.7,1.6,3.7,3.3s-1.3,3.3-3.8,3.3h-1.9v-10ZM311.5,57.6c0-.9-.6-1.4-1.7-1.4v2.8c1.1,0,1.7-.5,1.7-1.4ZM314.3,50.9h2v10h-2v-10Z"/>
        <path class="st4" d="M318,50.9h1.9v4.9l3.7-5.1h.3v10.1h-1.9v-4.9l-3.7,5.1h-.3v-10.1ZM319.1,48.8h1.5c0,.3.3.5.6.5s.6-.2.6-.5h1.5c0,1.3-1,1.8-2.1,1.8s-2.1-.6-2.1-1.8Z"/>
        <path class="st4" d="M331,56.6h-.6v4.3h-1.9v-10h1.9v3.8h.7l1.2-3.8h2l-1.6,4.8,1.9,5.2h-2.1l-1.4-4.3Z"/>
        <path class="st4" d="M335.9,58.1l.2-7.2h5.1v10h-1.9v-8.1h-1.4l-.2,5.4c0,2.4-1.2,2.9-2.9,2.9v-1.9c.6,0,1-.3,1-1Z"/>
        <path class="st4" d="M343,50.9h1.9v4.9l3.7-5.1h.3v10.1h-1.9v-4.9l-3.7,5.1h-.3v-10.1Z"/>
        <path class="st4" d="M354.6,56.6h-2v4.3h-2v-10h2v3.8h2v-3.8h2v10h-2v-4.3Z"/>
        <path class="st4" d="M358.3,50.9h1.9v4.9l3.7-5.1h.3v10.1h-1.9v-4.9l-3.7,5.1h-.3v-10.1Z"/>
        <path class="st4" d="M365.5,50.9h2v2.3c0,1.8.5,2.4,1.9,2.6v-4.9h2v10h-2v-3.2c-2.8-.2-3.8-1.6-3.8-4.5v-2.3Z"/>
      </g>
      <g class="st3">
        <path class="st4" d="M373,50.9h4.6v1.9h-2.6v2h2.1v1.9h-2.1v2.4h2.8v1.9h-4.8v-10Z"/>
      </g>
      <g class="st3">
        <path class="st4" d="M378.7,55.9c0-3.1,2.2-5.1,5.2-5.1s.7,0,1.1.1v2c-.3,0-.6-.1-1-.1-1.9,0-3.1,1.2-3.1,3.1s1.3,3.1,3.1,3.1.7,0,1-.1v2c-.3.1-.7.2-1.1.2-3,0-5.2-2.1-5.2-5.1Z"/>
        <path class="st4" d="M389,56.6h-.6v4.3h-1.9v-10h1.9v3.8h.7l1.2-3.8h2l-1.6,4.8,1.9,5.2h-2.1l-1.4-4.3Z"/>
        <path class="st4" d="M393.5,50.9h1.9v4.9l3.7-5.1h.3v10.1h-1.9v-4.9l-3.7,5.1h-.3v-10.1Z"/>
        <path class="st4" d="M401.1,50.9h1.9v4.9l3.7-5.1h.3v10.1h-1.9v-4.9l-3.7,5.1h-.3v-10.1ZM402.2,48.8h1.5c0,.3.3.5.6.5s.6-.2.6-.5h1.5c0,1.3-1,1.8-2.1,1.8s-2.2-.6-2.2-1.8Z"/>
        <path class="st4" d="M411.5,50.9h2v8.1h2v-8.1h2v8.1h.6v3.4h-1.9v-1.6h-4.7v-10Z"/>
        <path class="st4" d="M419.3,50.9h4.6v1.9h-2.6v2h2.1v1.9h-2.1v2.4h2.8v1.9h-4.8v-10Z"/>
        <path class="st4" d="M429.5,56.6h-2v4.3h-2v-10h2v3.8h2v-3.8h2v10h-2v-4.3Z"/>
        <path class="st4" d="M434.4,52.8h-1.9v-1.9h5.7v1.9h-1.9v8.1h-2v-8.1Z"/>
        <path class="st4" d="M439.4,50.9h1.6c2.7,0,4.2,1.1,4.2,3.3s-1,3.3-3.8,3.3v3.4h-2v-10ZM443.1,54.2c0-.9-.6-1.4-1.7-1.4v2.8c1.1,0,1.7-.5,1.7-1.4Z"/>
      </g>
    </g>
    <g class="st3">
      <g class="st3">
        <path class="st1" d="M116.2,25.2h-2v13.2h-6.4V7.7h6.4v11.8h2.2l4.1-11.8h6.6l-5.5,14.7,6.2,16.1h-6.9l-4.7-13.2Z"/>
      </g>
      <g class="st3">
        <path class="st1" d="M129,23.1c0-9.5,7.1-15.8,16.8-15.8s16.9,6.4,16.9,15.8-7.2,15.8-16.9,15.8-16.8-6.8-16.8-15.8ZM155.8,23.1c0-5.6-4-9.7-10-9.7s-10,4.1-10,9.7,4,9.7,10,9.7,10-4.1,10-9.7Z"/>
        <path class="st1" d="M181.8,16.1c3.9-4.4,8.1-7.7,14.3-8.4v30.8h-6.4v-21.9l-7.7,7.5h-.5l-7.6-7.6v21.9h-6.4V7.7c6.2.7,10.4,4,14.3,8.4Z"/>
        <path class="st1" d="M216.1,16.1c3.9-4.4,8.1-7.7,14.3-8.4v30.8h-6.4v-21.9l-7.7,7.5h-.5l-7.6-7.6v21.9h-6.4V7.7c6.2.7,10.4,4,14.3,8.4Z"/>
        <path class="st1" d="M238.2,32.7h2.7c3.2,0,4.7-.9,5.1-4h-8.4l-2.9-21h6.7l1.9,15.3h3.5l2-15.3h6.8l-3.3,21.6c-1.1,7.3-4.8,9.2-11.4,9.2h-2.7v-5.7Z"/>
        <path class="st1" d="M272.6,25.2h-6.7v13.3h-6.7V7.7h6.7v11.8h6.7V7.7h6.7v30.8h-6.7v-13.3Z"/>
        <path class="st1" d="M297.6,7.2h1l15.3,31.2h-7.1l-2.1-4.6h-13.3l-2.1,4.6h-6.9l15.3-31.2ZM302.2,28.3l-4.1-9.2-4.1,9.2h8.3Z"/>
        <path class="st1" d="M316.9,7.7h5.2c9,0,14,3.4,14,10.1s-3.3,10.1-12.6,10.1v10.6h-6.7V7.7ZM329.3,17.8c0-2.9-2-4.4-5.7-4.4v8.8c3.7,0,5.7-1.5,5.7-4.4Z"/>
        <path class="st1" d="M348.6,25.2h-2v13.2h-6.4V7.7h6.4v11.8h2.2l4.1-11.8h6.6l-5.5,14.7,6.2,16.1h-6.9l-4.7-13.2Z"/>
        <path class="st1" d="M376.4,7.2h1l15.3,31.2h-7.1l-2.1-4.6h-13.3l-2.1,4.6h-6.9l15.3-31.2ZM380.9,28.3l-4.1-9.2-4.1,9.2h8.3Z"/>
      </g>
    </g>
  </g>
</svg>