<svg width="251" height="66" viewBox="0 0 251 66" fill="none" xmlns="http://www.w3.org/2000/svg">
<path d="M50.2656 13.0625C52.6875 13.0625 54.8438 13.5 56.7188 14.375L53.5312 21.5C52.5625 21.125 51.4688 20.9375 50.25 20.9375C46.8125 20.9375 44 23.75 44 27.1875V51.5H35.8125V13.3125H44.0312V16.8125C45.5 14.5 47.75 13.0625 50.2656 13.0625ZM104.375 13.3125L111.969 51.5H103.125L101.5 42H92.3125L90.6875 51.5H81.875L89.4688 13.3125H104.375ZM94.2188 35.125L96.9375 19.8125L99.625 35.125H94.2188ZM15.5625 27.1875L20.9375 42.6875L26.3125 27.1875C27.5 23.875 29.8125 21.8125 32.25 21.8125H33.0625V13.3125H32.25C26.125 13.3125 20.5 17.5 18.25 22.3125L15.5625 27.1875ZM20.9375 51.5C20.5312 51.5 20.125 51.5 19.75 51.4375L13.8438 34.0625L9.3125 42.125V51.5H0.9375V0.8125H10.125L18.625 15.0625L23.125 7.1875L30.125 22.3125C32.125 19.5 35.125 17.8125 38.5312 17.8125V26.3125C35.5312 26.3125 32.8125 28.125 31.625 30.6875L28.8125 37.5625L22.125 51.5H20.9375ZM61.8125 13.3125H70.3125V51.5H61.8125V13.3125ZM136.688 13.0625C139.109 13.0625 141.266 13.5 143.141 14.375L139.953 21.5C138.984 21.125 137.891 20.9375 136.672 20.9375C133.234 20.9375 130.422 23.75 130.422 27.1875V51.5H122.234V13.3125H130.453V16.8125C131.922 14.5 134.172 13.0625 136.688 13.0625ZM168.5 13.3125H187.312V20.8125H176.812V29H185.812V36.5H176.812V51.5H168.5V13.3125ZM192.562 13.3125L200.156 51.5H191.312L189.688 42H180.5L178.875 51.5H170.062L177.656 13.3125H192.562ZM182.406 35.125L185.125 19.8125L187.812 35.125H182.406Z" fill="white"/>
<path d="M239.938 13.0625C242.359 13.0625 244.516 13.5 246.391 14.375L243.203 21.5C242.234 21.125 241.141 20.9375 239.922 20.9375C236.484 20.9375 233.672 23.75 233.672 27.1875V51.5H225.484V13.3125H233.703V16.8125C235.172 14.5 237.422 13.0625 239.938 13.0625Z" fill="white"/>
</svg>
